<svg xmlns="http://www.w3.org/2000/svg" version="1.1" width="225px" height="225px"
    style="shape-rendering:geometricPrecision; text-rendering:geometricPrecision; image-rendering:optimizeQuality; fill-rule:evenodd; clip-rule:evenodd"
    xmlns:xlink="http://www.w3.org/1999/xlink">
    <g>
        <path style="opacity:1" fill="#fefefe"
            d="M -0.5,-0.5 C 74.5,-0.5 149.5,-0.5 224.5,-0.5C 224.5,74.5 224.5,149.5 224.5,224.5C 149.5,224.5 74.5,224.5 -0.5,224.5C -0.5,149.5 -0.5,74.5 -0.5,-0.5 Z" />
    </g>
    <g>
        <path style="opacity:1" fill="#ec1b26"
            d="M 64.5,36.5 C 86.3417,33.8666 100.842,42.8666 108,63.5C 108.655,76.4612 112.321,88.4612 119,99.5C 123.922,105.084 129.922,109.084 137,111.5C 145.958,113.158 154.791,115.325 163.5,118C 187.97,129.921 193.803,148.087 181,172.5C 165.679,188.581 148.179,191.414 128.5,181C 120.452,174.406 115.952,165.906 115,155.5C 116.727,135.435 108.56,121.268 90.5,113C 81.5092,111.082 72.5092,109.082 63.5,107C 37.2485,95.5728 30.4151,77.0728 43,51.5C 48.818,44.3594 55.9846,39.3594 64.5,36.5 Z" />
    </g>
    <g>
        <path style="opacity:1" fill="#ec1c26"
            d="M 147.5,36.5 C 173.859,35.031 187.026,47.3643 187,73.5C 183.111,90.0505 172.611,99.0505 155.5,100.5C 132.299,97.7958 121.799,84.7958 124,61.5C 127.581,49.0884 135.414,40.755 147.5,36.5 Z" />
    </g>
    <g>
        <path style="opacity:1" fill="#ec1c26"
            d="M 62.5,123.5 C 81.1706,122.025 93.6706,130.025 100,147.5C 102.74,168.067 94.2396,181.234 74.5,187C 45.9208,187.034 33.7541,172.868 38,144.5C 42.7165,133.27 50.8832,126.27 62.5,123.5 Z" />
    </g>
</svg>